<svg xmlns="http://www.w3.org/2000/svg" width="1024" height="500" viewBox="0 0 1024 500">
  <!-- Background -->
  <rect width="1024" height="500" fill="#171717"/>

  <!-- Icon Group -->
  <g transform="translate(220,420) scale(0.35)">
    <!-- Mirror Border -->
		<path d="M360-120H200q-33 0-56.5-23.5T120-200v-560q0-33 23.5-56.5T200-840h160v80H200v560h160v80Zm80 80Zm160-80v-80h80v80h-80Zm0-640v-80h80v80h-80Zm160 640v-80h80q0 33-23.5 56.5T760-120Zm0-160v-7.428571 29.142857Zm0-160h78.857143Zm0-160h-82.285714Zm0-160v-80q33 0 56.5 23.5T840-760h-80Z" fill="#2a96b0" />

    <!-- M -->
    <path d="M340-340v-280h80l60 120 60-120h80v280h-70v-160l-70 120-70-120v160h-60z" fill="#2a96b0"/>

    <!-- Top Vertical Line -->
    <line x1="478" y1="-880" x2="478" y2="-647" stroke="#2a96b0" stroke-width="50" stroke-linecap="butt"/>

    <!-- Bottom Vertical Line -->
    <line x1="478" y1="-317" x2="478" y2="-84" stroke="#2a96b0" stroke-width="50" stroke-linecap="butt"/>
  </g>

  <!-- Text -->
  <text x="450" y="300" font-family="Arial, Helvetica, sans-serif" font-size="135" font-weight="bold" fill="#2a96b0">
    iddor
  </text>
</svg>