<?xml version="1.0" encoding="UTF-8" standalone="no"?>
<svg viewBox="100 0 527.14794 294" width="878.5799" height="490" version="1.1" id="svg3"
   sodipodi:docname="monochrome-long.svg" inkscape:version="1.4.2 (ebf0e940, 2025-05-08)"
   xmlns:inkscape="http://www.inkscape.org/namespaces/inkscape"
   xmlns:sodipodi="http://sodipodi.sourceforge.net/DTD/sodipodi-0.dtd" xmlns="http://www.w3.org/2000/svg"
   xmlns:svg="http://www.w3.org/2000/svg">
   <defs id="defs3" />
   <sodipodi:namedview id="namedview3" pagecolor="#ffffff" bordercolor="#000000" borderopacity="0.25"
      inkscape:showpageshadow="2" inkscape:pageopacity="0.0" inkscape:pagecheckerboard="0" inkscape:deskcolor="#d1d1d1"
      inkscape:zoom="0.052" inkscape:cx="442.30769" inkscape:cy="-1298.0769" inkscape:window-width="1360"
      inkscape:window-height="816" inkscape:window-x="0" inkscape:window-y="25" inkscape:window-maximized="0"
      inkscape:current-layer="svg3">
      <inkscape:page x="0" y="0" width="527.14795" height="294" id="page2" margin="0" bleed="0" />
   </sodipodi:namedview>
   <!-- Icon Group -->
   <g transform="matrix(0.35,0,0,0.35,58,308)" id="g3">
      <path
         d="M 360,-120 H 200 q -33,0 -56.5,-23.5 Q 120,-167 120,-200 v -560 q 0,-33 23.5,-56.5 Q 167,-840 200,-840 h 160 v 80 H 200 v 560 h 160 z m 80,80 z m 160,-80 v -80 h 80 v 80 z m 0,-640 v -80 h 80 v 80 z m 160,640 v -80 h 80 q 0,33 -23.5,56.5 Q 793,-120 760,-120 Z m 0,-160 v -7.42857 29.14286 z m 0,-160 h 78.85714 z m 0,-160 h -82.28571 z m 0,-160 v -80 q 33,0 56.5,23.5 23.5,23.5 23.5,56.5 z"
         fill="#000000" id="path1" />
      <path d="m 340,-340 v -280 h 80 l 60,120 60,-120 h 80 v 280 h -70 v -160 l -70,120 -70,-120 v 160 h -60 z"
         fill="#000000" id="path2" />
      <path id="line2" style="stroke:#000000;stroke-width:50" d="m 478,-880 v 233" />
      <path id="line3" style="stroke:#000000;stroke-width:50" d="M 478,-317 V -84" />
   </g>
   <!-- Text -->
   <path
      d="M 297.68994,108.50293 V 91.36426 h 18.52295 v 17.13867 z m 0,79.49707 v -70.00488 h 18.52295 V 188 Z m 101.71143,0 h -17.20459 v -10.2832 q -4.28467,5.99853 -10.15137,8.96484 -5.80078,2.90039 -11.7334,2.90039 -12.06299,0 -20.69824,-9.68994 -8.56934,-9.75586 -8.56934,-27.1582 0,-17.79785 8.37159,-27.02637 8.37158,-9.29443 21.15966,-9.29443 11.7334,0 20.30274,9.75586 V 91.36426 h 18.52295 z m -49.43848,-36.51855 q 0,11.20605 3.09815,16.21582 4.48242,7.25097 12.52441,7.25097 6.39404,0 10.87646,-5.40527 4.48243,-5.47119 4.48243,-16.28174 0,-12.06299 -4.35059,-17.33643 -4.35059,-5.33935 -11.14014,-5.33935 -6.59179,0 -11.07422,5.27344 -4.4165,5.20752 -4.4165,15.62256 z M 481.86475,188 h -17.20459 v -10.2832 q -4.28467,5.99853 -10.15137,8.96484 -5.80078,2.90039 -11.7334,2.90039 -12.06299,0 -20.69824,-9.68994 -8.56934,-9.75586 -8.56934,-27.1582 0,-17.79785 8.37158,-27.02637 8.37159,-9.29443 21.15967,-9.29443 11.7334,0 20.30274,9.75586 V 91.36426 h 18.52295 z m -49.43848,-36.51855 q 0,11.20605 3.09814,16.21582 4.48243,7.25097 12.52442,7.25097 6.39404,0 10.87646,-5.40527 4.48242,-5.47119 4.48242,-16.28174 0,-12.06299 -4.35058,-17.33643 -4.35059,-5.33935 -11.14014,-5.33935 -6.59179,0 -11.07422,5.27344 -4.4165,5.20752 -4.4165,15.62256 z m 63.41309,0.52734 q 0,-9.22852 4.54834,-17.86377 4.54834,-8.63525 12.854,-13.18359 8.37158,-4.54834 18.65478,-4.54834 15.88623,0 26.0376,10.34912 10.15137,10.2832 10.15137,26.03759 0,15.88624 -10.2832,26.36719 -10.21729,10.41504 -25.77393,10.41504 -9.62402,0 -18.39111,-4.35058 -8.70117,-4.35059 -13.24951,-12.72217 -4.54834,-8.4375 -4.54834,-20.50049 z m 18.98437,0.98877 q 0,10.41504 4.94385,15.95215 4.94385,5.53711 12.19482,5.53711 7.25098,0 12.12891,-5.53711 4.94385,-5.53711 4.94385,-16.08399 0,-10.2832 -4.94385,-15.82031 -4.87793,-5.53711 -12.12891,-5.53711 -7.25097,0 -12.19482,5.53711 -4.94385,5.53711 -4.94385,15.95215 z M 600.31934,188 h -18.52295 v -70.00488 h 17.20459 v 9.95361 q 4.4165,-7.05322 7.91015,-9.29443 3.55957,-2.24121 8.04199,-2.24121 6.32813,0 12.19483,3.49365 l -5.73486,16.1499 q -4.68018,-3.03223 -8.70118,-3.03223 -3.88916,0 -6.59179,2.1753 -2.70264,2.10937 -4.28467,7.7124 -1.51611,5.60303 -1.51611,23.4668 z"
      id="text3" style="font-weight:bold;font-size:135px;font-family:Arial, Helvetica, sans-serif" aria-label="iddor" />
</svg>